<?xml version="1.0" standalone="no"?><!DOCTYPE svg PUBLIC "-//W3C//DTD SVG 1.1//EN" "http://www.w3.org/Graphics/SVG/1.1/DTD/svg11.dtd"><svg t="1650334971033" class="icon" viewBox="0 0 1024 1024" version="1.1" xmlns="http://www.w3.org/2000/svg" p-id="3260" xmlns:xlink="http://www.w3.org/1999/xlink" width="128" height="128"><defs><style type="text/css">@font-face { font-family: feedback-iconfont; src: url("//at.alicdn.com/t/font_1031158_u69w8yhxdu.woff2?t=1630033759944") format("woff2"), url("//at.alicdn.com/t/font_1031158_u69w8yhxdu.woff?t=1630033759944") format("woff"), url("//at.alicdn.com/t/font_1031158_u69w8yhxdu.ttf?t=1630033759944") format("truetype"); }
</style></defs><path d="M811.084 578.703l-279.442 417.501c-5.482 8.227-14.684 13.148-24.557 13.148l-0.002 0c-9.818 0-19.041-4.927-24.557-13.127l-279.307-416.421c-34.029-54.436-51.751-116.094-51.751-179.049 0-189.898 159.406-344.416 355.359-344.416 195.927 0 355.359 154.508 355.359 344.416 0 62.864-17.669 124.398-51.088 177.949l0 0zM506.829 115.917c-163.293 0-296.128 127.782-296.128 284.842 0 51.751 14.606 102.412 42.17 146.556l254.208 378.977 254.4-380.022c26.976-43.239 41.484-93.845 41.484-145.498 0-157.055-132.853-284.842-296.117-284.842l0 0zM506.829 563.263c-92.846 0-168.368-73.486-168.368-163.827 0-90.292 75.523-163.791 168.368-163.791 92.846 0 168.359 73.474 168.359 163.791 0 90.315-75.506 163.827-168.359 163.827l0 0zM506.829 295.219c-60.212 0-109.156 46.774-109.156 104.239 0 57.471 48.953 104.239 109.156 104.239 60.195 0 109.143-46.766 109.143-104.239 0-57.461-48.953-104.239-109.143-104.239l0 0z" p-id="3261" fill="#ffffff"></path></svg>