<?xml version="1.0" standalone="no"?><!DOCTYPE svg PUBLIC "-//W3C//DTD SVG 1.1//EN" "http://www.w3.org/Graphics/SVG/1.1/DTD/svg11.dtd"><svg t="1650279353104" class="icon" viewBox="0 0 1024 1024" version="1.1" xmlns="http://www.w3.org/2000/svg" p-id="7767" xmlns:xlink="http://www.w3.org/1999/xlink" width="64" height="64"><defs><style type="text/css">@font-face { font-family: feedback-iconfont; src: url("//at.alicdn.com/t/font_1031158_u69w8yhxdu.woff2?t=1630033759944") format("woff2"), url("//at.alicdn.com/t/font_1031158_u69w8yhxdu.woff?t=1630033759944") format("woff"), url("//at.alicdn.com/t/font_1031158_u69w8yhxdu.ttf?t=1630033759944") format("truetype"); }
</style></defs><path d="M664.081597 1023.943114a78.246037 78.246037 0 0 1-78.985549-76.795456v-284.996471a78.27448 78.27448 0 0 1 78.985549-76.93767h280.843828A78.189152 78.189152 0 0 1 1023.939417 662.151187v284.996471a78.246037 78.246037 0 0 1-79.013992 76.795456z m-585.067605 0a78.246037 78.246037 0 0 1-78.985549-76.795456v-284.996471a78.160709 78.160709 0 0 1 78.985549-76.93767h280.786942a78.302923 78.302923 0 0 1 79.042434 76.93767v284.996471h-0.170656a78.246037 78.246037 0 0 1-78.985549 76.795456z m0-585.096048a78.217594 78.217594 0 0 1-78.985549-76.93767V76.912925a78.189152 78.189152 0 0 1 78.957106-76.795456h280.786942a78.27448 78.27448 0 0 1 79.042435 76.93767v284.996471a78.27448 78.27448 0 0 1-79.013992 76.795456z m589.675333-5.688552a77.193655 77.193655 0 0 1-77.990052-75.885288V75.888985a77.25054 77.25054 0 0 1 77.990052-75.942173h277.26004a77.25054 77.25054 0 0 1 77.961609 75.942173v281.384241a77.421197 77.421197 0 0 1-78.132266 75.885288z" p-id="7768" fill="#ffffff"></path></svg>