<?xml version="1.0" standalone="no"?><!DOCTYPE svg PUBLIC "-//W3C//DTD SVG 1.1//EN" "http://www.w3.org/Graphics/SVG/1.1/DTD/svg11.dtd"><svg t="1651306418520" class="icon" viewBox="0 0 1024 1024" version="1.1" xmlns="http://www.w3.org/2000/svg" p-id="2267" width="128" height="128" xmlns:xlink="http://www.w3.org/1999/xlink"><defs><style type="text/css">@font-face { font-family: feedback-iconfont; src: url("//at.alicdn.com/t/font_1031158_u69w8yhxdu.woff2?t=1630033759944") format("woff2"), url("//at.alicdn.com/t/font_1031158_u69w8yhxdu.woff?t=1630033759944") format("woff"), url("//at.alicdn.com/t/font_1031158_u69w8yhxdu.ttf?t=1630033759944") format("truetype"); }
</style></defs><path d="M995.328 488.448c-14.1312 0-25.6 11.4688-25.6 25.6v382.3616c0 28.672-34.2016 52.8384-74.752 52.8384H133.12c-40.5504 0-74.752-24.1664-74.752-52.8384V514.048c0-14.1312-11.4688-25.6-25.6-25.6S7.168 499.9168 7.168 514.048v382.3616c0 57.344 56.5248 104.0384 125.952 104.0384h761.856c69.4272 0 125.952-46.6944 125.952-104.0384V514.048c0-14.1312-11.4688-25.6-25.6-25.6zM215.8592 430.08c14.1312 0 25.6-11.4688 25.6-25.6V111.2064c0-19.0464 16.384-34.4064 36.6592-34.4064h472.064c20.0704 0 36.6592 15.5648 36.6592 34.4064v293.2736c0 14.1312 11.4688 25.6 25.6 25.6s25.6-11.4688 25.6-25.6V111.2064c0-47.3088-39.3216-85.6064-87.8592-85.6064H277.9136c-48.3328 0-87.8592 38.5024-87.8592 85.6064v293.2736c0.2048 14.1312 11.6736 25.6 25.8048 25.6z" p-id="2268" fill="#ffffff"></path><path d="M410.2144 251.904c-13.5168 0-24.576 11.0592-24.576 24.576v2.048c0 13.5168 11.0592 24.576 24.576 24.576H630.784c13.5168 0 24.576-11.0592 24.576-24.576v-2.048c0-13.5168-11.0592-24.576-24.576-24.576H410.2144zM191.8976 587.3664l315.8016 182.272c3.8912 2.2528 8.3968 3.2768 12.6976 3.2768 4.3008 0 8.6016-1.024 12.6976-3.2768l315.8016-182.272c11.6736-6.7584 15.7696-21.9136 9.0112-33.5872l-1.024-1.8432c-6.7584-11.6736-21.9136-15.7696-33.5872-9.0112l-303.104 174.8992-302.6944-174.6944c-11.6736-6.7584-26.8288-2.6624-33.5872 9.0112l-1.024 1.8432c-6.7584 11.4688-2.6624 26.624 9.0112 33.3824z" p-id="2269" fill="#ffffff"></path></svg>