<?xml version="1.0" standalone="no"?><!DOCTYPE svg PUBLIC "-//W3C//DTD SVG 1.1//EN" "http://www.w3.org/Graphics/SVG/1.1/DTD/svg11.dtd"><svg t="1650279019027" class="icon" viewBox="0 0 1024 1024" version="1.1" xmlns="http://www.w3.org/2000/svg" p-id="3621" width="64" height="64" xmlns:xlink="http://www.w3.org/1999/xlink"><defs><style type="text/css">@font-face { font-family: feedback-iconfont; src: url("//at.alicdn.com/t/font_1031158_u69w8yhxdu.woff2?t=1630033759944") format("woff2"), url("//at.alicdn.com/t/font_1031158_u69w8yhxdu.woff?t=1630033759944") format("woff"), url("//at.alicdn.com/t/font_1031158_u69w8yhxdu.ttf?t=1630033759944") format("truetype"); }
</style></defs><path d="M170.666667 113.777778a56.888889 56.888889 0 0 0-56.888889 56.888889v682.666666a56.888889 56.888889 0 0 0 56.888889 56.888889h682.666666a56.888889 56.888889 0 0 0 56.888889-56.888889V170.666667a56.888889 56.888889 0 0 0-56.888889-56.888889H170.666667z m0-113.777778h682.666666a170.666667 170.666667 0 0 1 170.666667 170.666667v682.666666a170.666667 170.666667 0 0 1-170.666667 170.666667H170.666667a170.666667 170.666667 0 0 1-170.666667-170.666667V170.666667a170.666667 170.666667 0 0 1 170.666667-170.666667z" p-id="3622" fill="#ffffff"></path><path d="M232.561778 718.620444a56.888889 56.888889 0 1 1-72.419556-87.779555l197.290667-162.702222a56.888889 56.888889 0 0 1 68.437333-3.015111l146.659556 100.693333 208.952889-193.365333a56.888889 56.888889 0 1 1 77.255111 83.512888l-242.346667 224.312889a56.888889 56.888889 0 0 1-70.826667 5.12L396.743111 583.111111l-164.181333 135.395556z" p-id="3623" fill="#ffffff"></path></svg>