<?xml version="1.0" standalone="no"?><!DOCTYPE svg PUBLIC "-//W3C//DTD SVG 1.1//EN" "http://www.w3.org/Graphics/SVG/1.1/DTD/svg11.dtd"><svg t="1650468634360" class="icon" viewBox="0 0 1024 1024" version="1.1" xmlns="http://www.w3.org/2000/svg" p-id="2809" width="128" height="128" xmlns:xlink="http://www.w3.org/1999/xlink"><defs><style type="text/css">@font-face { font-family: feedback-iconfont; src: url("//at.alicdn.com/t/font_1031158_u69w8yhxdu.woff2?t=1630033759944") format("woff2"), url("//at.alicdn.com/t/font_1031158_u69w8yhxdu.woff?t=1630033759944") format("woff"), url("//at.alicdn.com/t/font_1031158_u69w8yhxdu.ttf?t=1630033759944") format("truetype"); }
</style></defs><path d="M510.848 0.213333c282.026667 0 510.634667 228.650667 510.634667 510.634667 0 282.026667-228.608 510.634667-510.634667 510.634667S0.213333 792.874667 0.213333 510.848C0.213333 228.864 228.864 0.213333 510.848 0.213333z m0 76.8c-239.573333 0-433.834667 194.261333-433.834667 433.834667 0 239.616 194.261333 433.834667 433.834667 433.834667 239.616 0 433.834667-194.218667 433.834667-433.834667 0-239.573333-194.218667-433.834667-433.834667-433.834667z m-0.213333 103.978667a43.861333 43.861333 0 0 1 44.117333 43.648v302.08l132.266667 101.205333 0.341333 0.213334a43.861333 43.861333 0 1 1-53.632 69.504l-166.741333-127.530667V224.64c0.128-24.064 19.626667-43.52 43.648-43.648z" p-id="2810" fill="#ffffff"></path></svg>