<?xml version="1.0" standalone="no"?><!DOCTYPE svg PUBLIC "-//W3C//DTD SVG 1.1//EN" "http://www.w3.org/Graphics/SVG/1.1/DTD/svg11.dtd"><svg t="1667964885683" class="icon" viewBox="0 0 1024 1024" version="1.1" xmlns="http://www.w3.org/2000/svg" p-id="10482" xmlns:xlink="http://www.w3.org/1999/xlink" width="128" height="128"><path d="M815.8 870h-530c-69.6 0-126.2-56.6-126.2-126.2v-530c0-69.6 56.6-126.2 126.2-126.2h530c69.6 0 126.2 56.6 126.2 126.2v530c0 69.6-56.6 126.2-126.2 126.2z m-530-731.9c-41.7 0-75.7 34-75.7 75.7v530c0 41.7 34 75.7 75.7 75.7h530c41.7 0 75.7-34 75.7-75.7v-530c0-41.7-34-75.7-75.7-75.7h-530z" fill="#ffffff" p-id="10483"></path><path d="M756.7 360.8H347.1c-13.9 0-25.2-11.4-25.2-25.2 0-13.9 11.4-25.2 25.2-25.2h409.6c13.9 0 25.2 11.4 25.2 25.2 0.1 13.8-11.3 25.2-25.2 25.2zM569.1 504.1h-228c-10.6 0-19.2-8.6-19.2-19.2v-12.1c0-10.6 8.6-19.2 19.2-19.2h228c10.6 0 19.2 8.6 19.2 19.2v12.1c0 10.5-8.6 19.2-19.2 19.2zM569.1 647.3h-228c-10.6 0-19.2-8.6-19.2-19.2V616c0-10.6 8.6-19.2 19.2-19.2h228c10.6 0 19.2 8.6 19.2 19.2v12.1c0 10.6-8.6 19.2-19.2 19.2z" fill="#ffffff" p-id="10484"></path></svg>