<?xml version="1.0" standalone="no"?><!DOCTYPE svg PUBLIC "-//W3C//DTD SVG 1.1//EN" "http://www.w3.org/Graphics/SVG/1.1/DTD/svg11.dtd"><svg t="1667964864087" class="icon" viewBox="0 0 1041 1024" version="1.1" xmlns="http://www.w3.org/2000/svg" p-id="9484" xmlns:xlink="http://www.w3.org/1999/xlink" width="130.125" height="128"><path d="M556.827084 85.041921a58.332717 58.332717 0 0 1 9.038609 9.038609l111.042443 138.797245a57.868007 57.868007 0 0 1-45.181425 93.999206h-53.20929v202.497362a57.856389 57.856389 0 1 1-115.701161 0v-202.497362h-53.174436a57.856389 57.856389 0 0 1-45.169807-93.999206l111.042443-138.797245a57.844771 57.844771 0 0 1 81.312624-9.038609z m146.046721 617.878354a49.177931 49.177931 0 1 1 0 98.344244H338.448259a49.177931 49.177931 0 0 1 0-98.344244zM846.329767 0.046471A195.003914 195.003914 0 0 1 1041.078091 184.29235l0.278826 10.699946v548.415834c0 150.775144-118.907659 273.772251-268.079554 280.313044l-12.500698 0.278826H280.603488C129.828343 1024 6.831236 905.069105 0.290444 755.908828l-0.290444-12.500698V204.646646A204.646646 204.646646 0 0 1 204.658264 0a49.177931 49.177931 0 0 1 0 98.355862 106.302402 106.302402 0 0 0-105.942252 97.58909l-0.348532 8.713311v538.749867a182.236008 182.236008 0 0 0 171.942682 181.945565l10.339797 0.290443h480.126706a182.247626 182.247626 0 0 0 181.945564-171.942682l0.290444-10.339797v-548.357745a96.636435 96.636435 0 0 0-96.636435-96.636435 49.177931 49.177931 0 1 1 0-98.355861z" p-id="9485" fill="#ffffff"></path></svg>