<?xml version="1.0" standalone="no"?><!DOCTYPE svg PUBLIC "-//W3C//DTD SVG 1.1//EN" "http://www.w3.org/Graphics/SVG/1.1/DTD/svg11.dtd"><svg t="1650279588190" class="icon" viewBox="0 0 1024 1024" version="1.1" xmlns="http://www.w3.org/2000/svg" p-id="10808" xmlns:xlink="http://www.w3.org/1999/xlink" width="128" height="128"><defs><style type="text/css">@font-face { font-family: feedback-iconfont; src: url("//at.alicdn.com/t/font_1031158_u69w8yhxdu.woff2?t=1630033759944") format("woff2"), url("//at.alicdn.com/t/font_1031158_u69w8yhxdu.woff?t=1630033759944") format("woff"), url("//at.alicdn.com/t/font_1031158_u69w8yhxdu.ttf?t=1630033759944") format("truetype"); }
</style></defs><path d="M96 652.8c-19.2 0-38.4-19.2-38.4-38.4V409.6c0-19.2 19.2-38.4 38.4-38.4s38.4 19.2 38.4 38.4v204.8c0 25.6-12.8 38.4-38.4 38.4z" p-id="10809" fill="#ffffff"></path><path d="M1017.6 512c0-51.2-32-89.6-76.8-102.4V160c0-83.2-64-147.2-147.2-147.2H204.8C121.6 12.8 57.6 76.8 57.6 160v19.2c0 19.2 19.2 38.4 38.4 38.4s38.4-19.2 38.4-38.4v-19.2c0-38.4 32-70.4 70.4-70.4h595.2c38.4 0 70.4 32 70.4 70.4V409.6c-38.4 12.8-76.8 57.6-76.8 102.4 0 51.2 32 89.6 76.8 102.4v249.6c0 38.4-32 70.4-70.4 70.4H204.8c-38.4 0-70.4-32-70.4-70.4v-19.2c0-19.2-19.2-38.4-38.4-38.4s-38.4 19.2-38.4 38.4v19.2c0 83.2 64 147.2 147.2 147.2h595.2c83.2 0 147.2-64 147.2-147.2V620.8c44.8-19.2 70.4-57.6 70.4-108.8z m-108.8 51.2c-25.6 0-51.2-19.2-51.2-51.2 0-25.6 19.2-51.2 51.2-51.2s51.2 19.2 51.2 51.2c-6.4 25.6-25.6 51.2-51.2 51.2z" p-id="10810" fill="#ffffff"></path><path d="M659.2 332.8H345.6c-19.2 0-38.4-12.8-38.4-38.4 0-19.2 19.2-38.4 38.4-38.4h313.6c19.2 0 38.4 19.2 38.4 38.4 0 25.6-19.2 38.4-38.4 38.4zM659.2 550.4H345.6c-19.2 0-38.4-12.8-38.4-38.4 0-19.2 19.2-38.4 38.4-38.4h313.6c19.2 0 38.4 19.2 38.4 38.4 0 25.6-19.2 38.4-38.4 38.4zM659.2 768H345.6c-19.2 0-38.4-19.2-38.4-38.4s19.2-38.4 38.4-38.4h313.6c19.2 0 38.4 19.2 38.4 38.4 0 25.6-19.2 38.4-38.4 38.4z" p-id="10811" fill="#ffffff"></path><path d="M153.6 768H44.8c-19.2 0-38.4-19.2-38.4-38.4s19.2-38.4 38.4-38.4h108.8c19.2 0 38.4 19.2 38.4 38.4 0 25.6-19.2 38.4-38.4 38.4z" p-id="10812" fill="#ffffff"></path><path d="M153.6 332.8H44.8c-25.6 0-38.4-12.8-38.4-38.4 0-19.2 12.8-38.4 38.4-38.4h108.8c19.2 0 38.4 19.2 38.4 38.4 0 25.6-19.2 38.4-38.4 38.4z" p-id="10813" fill="#ffffff"></path></svg>