<?xml version="1.0" standalone="no"?><!DOCTYPE svg PUBLIC "-//W3C//DTD SVG 1.1//EN" "http://www.w3.org/Graphics/SVG/1.1/DTD/svg11.dtd"><svg t="1667964632888" class="icon" viewBox="0 0 1024 1024" version="1.1" xmlns="http://www.w3.org/2000/svg" p-id="3772" xmlns:xlink="http://www.w3.org/1999/xlink" width="128" height="128"><path d="M956.945067 905.710933H67.072l1.0752-598.596266h887.381333M68.130133 239.0016C31.095467 239.0016 0 267.298133 0 304.349867v601.361066A67.072 67.072 0 0 0 67.054933 972.8H956.928A67.072 67.072 0 0 0 1024 905.710933V304.349867c0-37.051733-31.470933-65.365333-68.488533-65.365334H68.130133z m167.8848 239.701333a33.536 33.536 0 0 0 0 67.089067h469.333334a33.536 33.536 0 0 0 0-67.089067h-469.333334z m-2.389333 204.663467a33.536 33.536 0 0 0 0 67.106133H531.968a33.536 33.536 0 0 0 0-67.106133H233.608533z m386.816-396.458667l-79.121067-144.264533a33.501867 33.501867 0 0 0-41.5744 0l-79.121066 144.264533-58.999467-32.2048 87.842133-157.013333a100.522667 100.522667 0 0 1 142.1312 0l5.376 7.389867 81.783467 148.9408-58.3168 32.887466z" fill="#ffffff" p-id="3773"></path></svg>