<?xml version="1.0" standalone="no"?><!DOCTYPE svg PUBLIC "-//W3C//DTD SVG 1.1//EN" "http://www.w3.org/Graphics/SVG/1.1/DTD/svg11.dtd"><svg t="1667203839315" class="icon" viewBox="0 0 1024 1024" version="1.1" xmlns="http://www.w3.org/2000/svg" p-id="4505" xmlns:xlink="http://www.w3.org/1999/xlink" width="180" height="180"><path d="M735.5 959h-447C165.3 959 65 858.7 65 735.5v-447C65 165.3 165.3 65 288.5 65h447C858.7 65 959 165.3 959 288.5v447C959 858.7 858.7 959 735.5 959z m-447-812.7c-78.4 0-142.2 63.8-142.2 142.2v447c0 78.4 63.8 142.2 142.2 142.2h447c78.4 0 142.2-63.8 142.2-142.2v-447c0-78.4-63.8-142.2-142.2-142.2h-447z" p-id="4506"></path><path d="M736.3 674.4c-19.7-16.7-42.5-27.4-66.7-36.4-21.4-7.5-42.5-15.3-62.1-24.3-21.4-9.2-25.7-28.9-15.3-50 3.2-6.1 7.5-12.1 13.6-16.7 16.7-13.6 25.7-30.3 31.8-50 3.2-12.1 9.2-21.1 19.7-28.9 18.2-12.1 21.4-30.3 19.7-50 0-7.5-3.2-13.6-10.7-15.3-12.1-3.2-12.1-12.1-13.6-19.7-1.5-6.1-1.5-10.7-3.2-16.7-9.2-53.1-54.6-94.2-109.2-95.6-58.7-1.5-107.3 36.4-117.9 92.7l-4.4 27.2c1.5 3.2 0 7.5-6.1 9.2-10.7 2.9-13.6 12.1-15.3 21.1-1.5 21.1 9.2 39.6 30.3 45.4 51.7 16.7 76 54.6 82 107.8 4.6 51.4 1.5 101.7 3.2 153.1 1.5 18.2 7.5 25.7 25.7 25.7h169.9c19.7 0 39.6-12.1 43.9-25.7 7.6-18 1.5-39.3-15.3-52.9z" p-id="4507"></path><path d="M449.7 616.6c-6.1 0-9.2-1.5-9.2-9.2v-34.7c-3.2-37.9-24.3-62.1-56.1-65.3-41-3.2-68.2 15.3-77.4 54.6-3.2 13.6-3.2 27.4-1.5 41 1.5 12.1-3.2 15.3-13.6 13.6-18.2 0-22.8 4.6-22.8 21.4v95.6c0 16.7 3.2 19.7 19.7 19.7h163.8c19.7 0 22.8-3.2 22.8-22.8V641c0.1-21.2-1.4-24.4-25.7-24.4z m-36.4-1.4c-13.6 4.6-28.9 0-39.6 1.5h-13.6c-31.8 0-31.8 0-31.8-31.8 0-13.6 2.9-25.7 10.7-36.4 16.7-22.8 54.6-18.2 66.7 7.5 10.6 18.2 7.6 38.1 7.6 59.2z" p-id="4508"></path></svg>