<?xml version="1.0" standalone="no"?><!DOCTYPE svg PUBLIC "-//W3C//DTD SVG 1.1//EN" "http://www.w3.org/Graphics/SVG/1.1/DTD/svg11.dtd"><svg t="1650279789253" class="icon" viewBox="0 0 1024 1024" version="1.1" xmlns="http://www.w3.org/2000/svg" p-id="18034" xmlns:xlink="http://www.w3.org/1999/xlink" width="128" height="128"><defs><style type="text/css">@font-face { font-family: feedback-iconfont; src: url("//at.alicdn.com/t/font_1031158_u69w8yhxdu.woff2?t=1630033759944") format("woff2"), url("//at.alicdn.com/t/font_1031158_u69w8yhxdu.woff?t=1630033759944") format("woff"), url("//at.alicdn.com/t/font_1031158_u69w8yhxdu.ttf?t=1630033759944") format("truetype"); }
</style></defs><path d="M505.6 576C505.6 576 505.6 576 505.6 576 486.4 576 473.6 563.2 473.6 544c0-12.8 0-51.2 38.4-76.8 6.4-6.4 12.8-6.4 19.2-12.8 25.6-12.8 57.6-32 70.4-76.8 6.4-32 0-57.6-19.2-83.2C569.6 275.2 544 262.4 505.6 262.4c-51.2 0-76.8 19.2-89.6 38.4C403.2 326.4 396.8 352 403.2 371.2c6.4 19.2-6.4 32-25.6 38.4C358.4 416 339.2 403.2 339.2 390.4c-12.8-38.4 0-89.6 32-128 32-38.4 83.2-64 140.8-64 57.6 0 102.4 19.2 134.4 57.6 32 38.4 38.4 89.6 25.6 134.4C652.8 467.2 595.2 499.2 563.2 512 556.8 512 556.8 518.4 550.4 518.4 537.6 524.8 537.6 531.2 537.6 537.6l0 6.4C537.6 563.2 524.8 576 505.6 576z" p-id="18035" fill="#ffffff"></path><path d="M512 1024c-12.8 0-25.6-6.4-38.4-6.4L115.2 832C83.2 812.8 64 787.2 64 755.2l0-620.8C64 57.6 121.6 0 198.4 0l627.2 0c38.4 0 70.4 12.8 96 38.4S960 96 960 134.4l0 620.8c0 32-19.2 64-44.8 76.8l-358.4 185.6C537.6 1017.6 524.8 1024 512 1024zM198.4 64C160 64 128 96 128 134.4l0 620.8c0 6.4 6.4 19.2 12.8 19.2L499.2 960C505.6 960 518.4 960 524.8 960l358.4-185.6c6.4-6.4 12.8-12.8 12.8-19.2l0-620.8c0-19.2-6.4-38.4-19.2-51.2C864 70.4 844.8 64 825.6 64L198.4 64z" p-id="18036" fill="#ffffff"></path><path d="M512 704 512 704c-19.2 0-32-12.8-32-32l0 0C480 652.8 492.8 640 512 640l0 0c19.2 0 32 12.8 32 32l0 0C544 691.2 531.2 704 512 704z" p-id="18037" fill="#ffffff"></path></svg>