<?xml version="1.0" standalone="no"?><!DOCTYPE svg PUBLIC "-//W3C//DTD SVG 1.1//EN" "http://www.w3.org/Graphics/SVG/1.1/DTD/svg11.dtd"><svg t="1667204106279" class="icon" viewBox="0 0 1024 1024" version="1.1" xmlns="http://www.w3.org/2000/svg" p-id="8808" width="128" height="128" xmlns:xlink="http://www.w3.org/1999/xlink"><path d="M51.2 614.4v-51.2h256v51.2H51.2z m819.2 307.2H153.6a102.4 102.4 0 0 1-102.4-102.4v-128h153.6v51.2H102.4v76.8a51.2 51.2 0 0 0 51.2 51.2h716.8a51.2 51.2 0 0 0 51.2-51.2V358.4H102.4v76.8h256v51.2H51.2v-179.2h30.72L204.8 102.4h614.4l122.88 204.8H972.8v512a102.4 102.4 0 0 1-102.4 102.4zM793.6 153.6H230.4l-102.4 153.6h768l-102.4-153.6z" fill="#ffffff" p-id="8809"></path><path d="M691.2 733.6192l-36.1984-36.1984L691.2 661.1968 737.9968 614.4H512v-51.2h225.9968L691.2 516.4032l-36.1984-36.224L691.2 443.9808 836.0192 588.8 691.2 733.6192z" fill="#ffffff" p-id="8810"></path></svg>