<?xml version="1.0" standalone="no"?><!DOCTYPE svg PUBLIC "-//W3C//DTD SVG 1.1//EN" "http://www.w3.org/Graphics/SVG/1.1/DTD/svg11.dtd"><svg t="1667204096698" class="icon" viewBox="0 0 1024 1024" version="1.1" xmlns="http://www.w3.org/2000/svg" p-id="7854" xmlns:xlink="http://www.w3.org/1999/xlink" width="180" height="180"><path d="M883.2 934.4H832V832c0-57.6-25.6-115.2-70.4-160l-76.8-76.8-38.4-38.4-12.8-6.4s-6.4 0-6.4-6.4c-6.4-6.4-12.8-19.2-12.8-32s6.4-25.6 12.8-32c0 0 0-6.4 6.4-6.4l19.2-12.8 6.4-12.8 25.6-25.6L768 345.6c44.8-38.4 64-96 64-153.6V89.6h51.2c25.6 0 51.2-19.2 51.2-38.4s-19.2-38.4-51.2-38.4H128c-25.6 0-51.2 19.2-51.2 38.4s19.2 38.4 51.2 38.4h51.2v96c0 57.6 25.6 115.2 70.4 160l32 32 83.2 83.2 6.4 6.4 12.8 6.4 6.4 6.4c6.4 6.4 12.8 19.2 12.8 32v12.8c0 6.4-6.4 19.2-12.8 25.6H384l-12.8 12.8-89.6 83.2-32 32c-44.8 38.4-70.4 96-70.4 160v102.4h-57.6c-25.6 0-51.2 19.2-51.2 38.4s19.2 38.4 51.2 38.4h761.6c25.6 0 51.2-19.2 51.2-38.4 0-25.6-19.2-44.8-51.2-44.8zM256 832c0-38.4 19.2-76.8 44.8-102.4L390.4 640l70.4-64c6.4-12.8 6.4-19.2 12.8-32 0-12.8 6.4-19.2 6.4-32v-32c0-6.4 0-12.8-6.4-19.2v-6.4c-12.8-6.4-12.8-6.4-19.2-12.8L384 371.2 300.8 288c-32-25.6-44.8-64-44.8-102.4V89.6h505.6v96c0 38.4-19.2 76.8-44.8 102.4L614.4 384l-38.4 38.4-6.4 6.4-6.4 6.4c-6.4 12.8-12.8 32-12.8 44.8v25.6c0 12.8 0 19.2 6.4 32 0 19.2 6.4 44.8 19.2 57.6l32 32 102.4 102.4c32 25.6 44.8 64 44.8 102.4v102.4H256V832z" p-id="7855" fill="#ffffff"></path><path d="M544 684.8c-12.8-12.8-38.4-12.8-57.6 0L390.4 768c-19.2 12.8-32 38.4-32 64v44.8h307.2V832c0-19.2-12.8-44.8-32-64l-89.6-83.2z" p-id="7856" fill="#ffffff"></path></svg>